<svg xmlns="http://www.w3.org/2000/svg" xmlns:xlink="http://www.w3.org/1999/xlink" width="253" zoomAndPan="magnify" viewBox="0 0 189.75 95.999999" height="128" preserveAspectRatio="xMidYMid meet" version="1.0"><defs><g/><clipPath id="98291cb5f4"><path d="M 71.148438 20.113281 L 99 20.113281 L 99 60 L 71.148438 60 Z M 71.148438 20.113281 " clip-rule="nonzero"/></clipPath><clipPath id="72e847bfc7"><path d="M 78.195312 41.257812 L 93.476562 41.257812 L 93.476562 54.679688 L 78.195312 54.679688 Z M 78.195312 41.257812 " clip-rule="nonzero"/></clipPath><clipPath id="4acb388e49"><path d="M 78.195312 45.214844 C 78.195312 49.472656 85.835938 54.664062 85.835938 54.664062 C 85.835938 54.664062 93.445312 49.4375 93.476562 45.214844 C 93.476562 43.035156 91.703125 41.257812 89.523438 41.257812 C 87.847656 41.257812 86.40625 42.332031 85.835938 43.804688 C 85.269531 42.332031 83.824219 41.257812 82.152344 41.257812 C 79.972656 41.257812 78.195312 43.035156 78.195312 45.214844 " clip-rule="nonzero"/></clipPath><clipPath id="c51fb15ad6"><path d="M 64 40 L 93 40 L 93 64 L 64 64 Z M 64 40 " clip-rule="nonzero"/></clipPath><clipPath id="e51d40e6fa"><path d="M 86.933594 68.917969 L 58.40625 52.332031 L 66.324219 38.714844 L 94.851562 55.300781 Z M 86.933594 68.917969 " clip-rule="nonzero"/></clipPath><clipPath id="3abf21ef6c"><path d="M 86.933594 68.917969 L 58.40625 52.332031 L 66.324219 38.714844 L 94.851562 55.300781 Z M 86.933594 68.917969 " clip-rule="nonzero"/></clipPath><clipPath id="0083cf5e48"><path d="M 86.933594 68.917969 L 58.40625 52.332031 L 66.324219 38.714844 L 94.851562 55.300781 Z M 86.933594 68.917969 " clip-rule="nonzero"/></clipPath></defs><g clip-path="url(#98291cb5f4)"><path fill="#ff5757" d="M 96.636719 39.867188 L 84.847656 20.640625 L 73.925781 39.734375 C 71.382812 43.78125 71.160156 49.042969 73.832031 53.398438 C 77.628906 59.59375 85.8125 61.582031 92.109375 57.84375 C 98.40625 54.109375 100.433594 46.0625 96.636719 39.867188 Z M 96.636719 39.867188 " fill-opacity="1" fill-rule="nonzero"/></g><g clip-path="url(#72e847bfc7)"><g clip-path="url(#4acb388e49)"><path fill="#ffffff" d="M 78.195312 41.257812 L 93.476562 41.257812 L 93.476562 54.679688 L 78.195312 54.679688 Z M 78.195312 41.257812 " fill-opacity="1" fill-rule="nonzero"/></g></g><g clip-path="url(#c51fb15ad6)"><g clip-path="url(#e51d40e6fa)"><g clip-path="url(#3abf21ef6c)"><g clip-path="url(#0083cf5e48)"><path fill="#000000" d="M 71.347656 44.816406 C 70.6875 47.25 70.78125 49.667969 71.640625 52.066406 C 72.542969 54.628906 74.097656 56.71875 76.300781 58.339844 C 78.664062 60.058594 81.296875 60.96875 84.207031 61.070312 C 85.71875 61.121094 87.199219 60.945312 88.652344 60.550781 C 90.105469 60.15625 91.460938 59.554688 92.722656 58.75 C 91.574219 59.835938 90.285156 60.726562 88.855469 61.421875 C 87.425781 62.117188 85.925781 62.585938 84.347656 62.828125 C 82.683594 63.082031 81.011719 63.085938 79.339844 62.839844 C 77.667969 62.589844 76.066406 62.105469 74.535156 61.375 C 72.925781 60.609375 71.460938 59.621094 70.148438 58.414062 C 68.832031 57.210938 67.726562 55.839844 66.824219 54.304688 C 65.875 52.699219 65.1875 50.992188 64.753906 49.1875 C 64.324219 47.378906 64.167969 45.554688 64.292969 43.710938 L 64.304688 43.53125 C 64.339844 43.0625 64.460938 42.617188 64.671875 42.199219 C 64.882812 41.777344 65.167969 41.417969 65.523438 41.113281 C 65.882812 40.804688 66.285156 40.582031 66.738281 40.4375 C 67.1875 40.292969 67.648438 40.238281 68.125 40.277344 C 68.597656 40.316406 69.046875 40.445312 69.472656 40.660156 C 69.898438 40.875 70.269531 41.164062 70.582031 41.523438 C 70.894531 41.882812 71.125 42.285156 71.277344 42.734375 C 71.429688 43.183594 71.488281 43.644531 71.457031 44.113281 C 71.441406 44.351562 71.40625 44.585938 71.347656 44.816406 Z M 71.347656 44.816406 " fill-opacity="1" fill-rule="nonzero"/></g></g></g></g><g fill="#ff5757" fill-opacity="1"><g transform="translate(96.489482, 50.794503)"><g/></g></g><g fill="#ff5757" fill-opacity="1"><g transform="translate(101.387919, 50.794503)"><g><path d="M 10.769531 -8.261719 C 11.796875 -8.261719 12.449219 -8.984375 12.601562 -9.789062 C 12.796875 -10.726562 11.664062 -11.554688 11.074219 -11.6875 C 10.027344 -11.902344 9.351562 -11.074219 9.265625 -10.246094 C 9.15625 -9.417969 9.636719 -8.394531 10.769531 -8.261719 Z M 4.816406 4.121094 C 6.585938 4.535156 9.484375 2.988281 10.574219 1.570312 C 11.183594 0.785156 11.554688 -0.457031 11.640625 -1.460938 C 11.664062 -1.746094 11.554688 -2.441406 11.554688 -2.507812 C 11.925781 -2.332031 11.796875 -2.355469 12.101562 -2.136719 C 12.644531 -1.484375 13.429688 -0.960938 14.300781 -0.652344 C 15.566406 -0.152344 19.425781 0 21.476562 0 C 21.695312 0 21.910156 -0.871094 21.910156 -1.484375 C 21.910156 -2.070312 21.695312 -2.964844 21.476562 -2.964844 C 20.429688 -2.964844 17.441406 -3.03125 16.65625 -3.3125 C 17.703125 -3.621094 18.640625 -4.140625 19.164062 -4.730469 C 19.644531 -5.253906 19.882812 -5.429688 20.1875 -6.125 C 21.105469 -8.109375 20.539062 -10.09375 18.554688 -10.75 C 17.617188 -11.03125 16.375 -10.574219 15.480469 -10.203125 C 13.800781 -9.527344 13.734375 -8.699219 12.625 -7.523438 C 12.101562 -6.976562 11.796875 -6.257812 11.554688 -5.558594 C 10.988281 -5.691406 10.726562 -6.105469 10.398438 -6.433594 C 9.789062 -7.0625 9.046875 -7.171875 8.414062 -6.78125 C 7.804688 -6.386719 7.609375 -5.691406 7.871094 -4.90625 C 7.9375 -4.753906 8.023438 -4.601562 8.066406 -4.449219 C 8.328125 -3.574219 8.570312 -2.703125 8.480469 -1.789062 C 8.414062 -1.265625 8.328125 -1.046875 7.804688 -0.109375 C 7.28125 0.785156 6.539062 1.066406 5.648438 1.15625 C 4.621094 1.265625 4.1875 0.71875 3.835938 -0.195312 C 3.421875 -1.242188 3.96875 -2.375 4.078125 -2.988281 C 4.230469 -3.664062 4.230469 -4.449219 3.683594 -4.753906 C 3.140625 -5.058594 2.527344 -4.839844 1.984375 -4.425781 C 1.503906 -4.054688 1.4375 -3.597656 1.417969 -3.007812 C 1.394531 -1.984375 0.589844 -1.023438 0.980469 0.566406 C 1.636719 3.269531 3.03125 3.683594 4.816406 4.121094 Z M 14.761719 -5.691406 C 15.066406 -6.5625 15.371094 -6.976562 16.394531 -7.542969 C 16.570312 -7.652344 16.765625 -7.695312 16.960938 -7.738281 C 17.113281 -7.761719 17.3125 -7.785156 17.398438 -7.609375 C 17.464844 -7.476562 17.398438 -7.347656 17.3125 -7.238281 C 16.4375 -6.171875 16.046875 -6.0625 14.761719 -5.691406 Z M 14.761719 -5.691406 "/></g></g></g><g fill="#ff5757" fill-opacity="1"><g transform="translate(122.857845, 50.794503)"><g><path d="M 0 0 C 0.871094 0 1.285156 -0.21875 1.636719 -0.328125 C 2.179688 -0.5 2.703125 -0.546875 3.160156 -0.851562 C 3.792969 -1.308594 4.273438 -1.699219 4.773438 -2.265625 C 5.035156 -2.574219 5.210938 -3.203125 5.339844 -3.203125 C 5.472656 -3.203125 5.601562 -2.769531 5.777344 -2.464844 C 6.277344 -1.546875 6.738281 -0.742188 7.71875 -0.347656 C 8.414062 -0.0859375 9.441406 0.0234375 10.050781 0 C 10.269531 0 10.488281 -0.871094 10.488281 -1.484375 C 10.488281 -2.070312 10.269531 -2.964844 10.050781 -2.964844 C 9.722656 -2.964844 9.417969 -3.203125 9.113281 -3.3125 C 8.414062 -3.554688 7.871094 -4.011719 7.609375 -4.753906 C 7.71875 -5.496094 7.128906 -6.695312 7.128906 -7.523438 C 7.128906 -8.328125 6.234375 -8.785156 5.277344 -8.765625 C 4.90625 -8.765625 4.449219 -8.199219 4.316406 -8.023438 C 3.597656 -7.128906 3.574219 -5.035156 2.179688 -3.925781 C 1.898438 -3.707031 1.175781 -3.117188 0.851562 -3.03125 C 0.742188 -2.988281 0.546875 -2.964844 0 -2.964844 C -0.21875 -2.964844 -0.4375 -2.070312 -0.4375 -1.484375 C -0.4375 -0.871094 -0.21875 0 0 0 Z M 5.320312 4.25 C 6.324219 4.25 6.953125 3.53125 7.109375 2.769531 C 7.28125 1.851562 6.214844 1.046875 5.625 0.914062 C 4.601562 0.699219 3.96875 1.527344 3.859375 2.332031 C 3.75 3.117188 4.230469 4.121094 5.320312 4.25 Z M 5.320312 4.25 "/></g></g></g><g fill="#ff5757" fill-opacity="1"><g transform="translate(132.906203, 50.794503)"><g><path d="M 1.722656 -11.425781 C 2.59375 -11.425781 3.117188 -12.035156 3.25 -12.710938 C 3.421875 -13.496094 2.484375 -14.195312 1.984375 -14.300781 C 1.089844 -14.476562 0.546875 -13.777344 0.457031 -13.082031 C 0.371094 -12.382812 0.761719 -11.535156 1.722656 -11.425781 Z M 0 0 C 1.789062 0 2.703125 -0.414062 4.078125 -1.328125 C 4.339844 -1.503906 4.773438 -1.960938 4.972656 -2.203125 C 5.496094 -2.8125 5.757812 -3.878906 5.648438 -4.664062 C 5.539062 -5.277344 5.648438 -5.777344 5.320312 -6.539062 C 5.058594 -7.195312 4.710938 -7.523438 4.492188 -8.109375 C 4.339844 -8.460938 4.164062 -8.785156 3.925781 -9.070312 C 3.53125 -9.570312 2.835938 -9.613281 2.246094 -9.375 C 1.851562 -9.222656 1.503906 -8.917969 1.351562 -8.503906 C 1.175781 -8 1.570312 -7.71875 1.765625 -7.214844 C 1.941406 -6.824219 2.070312 -6.257812 2.332031 -5.734375 C 2.527344 -5.339844 2.8125 -4.972656 2.878906 -4.535156 C 2.898438 -4.316406 2.789062 -3.726562 2.574219 -3.574219 C 1.832031 -3.097656 1.308594 -2.964844 0 -2.964844 C -0.21875 -2.964844 -0.4375 -2.09375 -0.4375 -1.484375 C -0.4375 -0.894531 -0.21875 0 0 0 Z M 0 0 "/></g></g></g></svg>